<?xml version="1.0" standalone="no"?>
        <!DOCTYPE svg PUBLIC "-//W3C//DTD SVG 1.1//EN" 
        "http://www.w3.org/Graphics/SVG/1.1/DTD/svg11.dtd"> <svg style="height: 200px; width: 200px; color: rgb(0, 0, 0);" xmlns="http://www.w3.org/2000/svg" width="16" height="16" fill="currentColor" class="bi bi-credit-card" viewBox="0 0 16 16"><rect width="100%" height="100%" fill="#E30964"></rect> <path d="M0 4a2 2 0 0 1 2-2h12a2 2 0 0 1 2 2v8a2 2 0 0 1-2 2H2a2 2 0 0 1-2-2V4zm2-1a1 1 0 0 0-1 1v1h14V4a1 1 0 0 0-1-1H2zm13 4H1v5a1 1 0 0 0 1 1h12a1 1 0 0 0 1-1V7z" fill="#000000"></path> <path d="M2 10a1 1 0 0 1 1-1h1a1 1 0 0 1 1 1v1a1 1 0 0 1-1 1H3a1 1 0 0 1-1-1v-1z" fill="#000000"></path> </svg> 